<svg width="24" height="24" viewBox="0 0 23 26" fill="none" xmlns="http://www.w3.org/2000/svg">
<rect width="1440" height="1196" fill="none" transform="translate(-1170 -37)"/>
<path d="M2.74998 3.43757V0.687504C2.74998 0.307457 3.05744 0 3.43758 0C3.81754 0 4.125 0.307457 4.125 0.687504V3.43757C4.125 3.81752 3.81754 4.12498 3.43758 4.12498C3.05744 4.12503 2.74998 3.81752 2.74998 3.43757ZM14.4376 4.12503C14.8175 4.12503 15.1252 3.81757 15.1252 3.43761V0.687504C15.1252 0.307457 14.8175 0 14.4376 0C14.0576 0 13.7499 0.307457 13.7499 0.687504V3.43757C13.7499 3.81752 14.0576 4.12503 14.4376 4.12503ZM22 16.4998C22 19.5375 19.5374 22 16.5 22C13.4628 22 11 19.5375 11 16.4998C11 13.4626 13.4627 11 16.5 11C19.5374 11 22 13.4626 22 16.4998ZM20.6252 16.4998C20.6252 14.2255 18.7748 12.3749 16.5 12.3749C14.2255 12.3749 12.3751 14.2254 12.3751 16.4998C12.3751 18.7746 14.2255 20.6249 16.5 20.6249C18.7748 20.6249 20.6252 18.7746 20.6252 16.4998ZM5.50006 8.25001H2.74998V11H5.50006V8.25001ZM2.74998 15.125H5.50006V12.3749H2.74998V15.125ZM6.87498 11H9.6251V8.25001H6.87498V11ZM6.87498 15.125H9.6251V12.3749H6.87498V15.125ZM1.37506 16.3631V6.87495H16.5V9.62501H17.8751V4.26205C17.8751 3.42682 17.2089 2.74997 16.386 2.74997H15.8125V3.43761C15.8125 4.19485 15.1961 4.81257 14.4377 4.81257C13.6791 4.81257 13.0627 4.19485 13.0627 3.43761V2.74997H4.81246V3.43761C4.81246 4.19485 4.19614 4.81257 3.43763 4.81257C2.67893 4.81257 2.06257 4.19485 2.06257 3.43761V2.74997H1.48982C0.666786 2.74997 0 3.42682 0 4.26205V16.3632C0 17.1956 0.666786 17.8751 1.48982 17.8751H9.6251V16.4999H1.48982C1.42752 16.4998 1.37506 16.4355 1.37506 16.3631ZM13.7499 11V8.25001H11.0001V11H13.7499ZM18.5626 16.4998H16.5V14.4373C16.5 14.0575 16.1925 13.75 15.8125 13.75C15.4324 13.75 15.1252 14.0575 15.1252 14.4373V17.1876C15.1252 17.5674 15.4324 17.8751 15.8125 17.8751H18.5626C18.9426 17.8751 19.2501 17.5674 19.2501 17.1876C19.2501 16.8075 18.9426 16.4998 18.5626 16.4998Z" transform="translate(1 2)" fill="black"/>
</svg>
