<svg width="19" height="19" viewBox="0 0 19 19" fill="none" xmlns="http://www.w3.org/2000/svg">
<mask id="mask0" mask-type="alpha" maskUnits="userSpaceOnUse" x="0" y="0" width="19" height="19">
<path d="M0 17.9929H17.9929V0H0V17.9929Z" transform="translate(0.28125 0.218262) rotate(0.305471)" fill="white"/>
</mask>
<g mask="url(#mask0)">
<path fill-rule="evenodd" clip-rule="evenodd" d="M16.9998 0H0.993034C0.444539 0 0 0.444539 0 0.993034V16.9998C0 17.5482 0.444539 17.9929 0.993034 17.9929H9.61058V11.0251H7.26573V8.3096H9.61058V6.30701C9.61058 3.98306 11.03 2.7176 13.1031 2.7176C14.0962 2.7176 14.9497 2.79148 15.1984 2.82452V5.25324L13.7606 5.25391C12.6331 5.25391 12.4147 5.78966 12.4147 6.57586V8.3096H15.1038L14.7537 11.0251H12.4147V17.9929H16.9998C17.5482 17.9929 17.9929 17.5482 17.9929 16.9998V0.993034C17.9929 0.444539 17.5482 0 16.9998 0Z" transform="translate(0.28125 0.218262) rotate(0.305471)" fill="black"/>
</g>
</svg>
