<svg width="19" height="19" viewBox="0 0 19 19" fill="none" xmlns="http://www.w3.org/2000/svg">
<mask id="mask0" mask-type="alpha" maskUnits="userSpaceOnUse" x="0" y="0" width="19" height="19">
<path d="M0 17.9963H18V0H0V17.9963Z" transform="translate(0.780273 0.476807) rotate(0.305471)" fill="white"/>
</mask>
<g mask="url(#mask0)">
<path fill-rule="evenodd" clip-rule="evenodd" d="M16 5C16 5.27612 15.7761 5.5 15.5 5.5H13C12.7239 5.5 12.5 5.27612 12.5 5V2.5C12.5 2.22388 12.7239 2 13 2H15.5C15.7761 2 16 2.22388 16 2.5V5ZM16 15.5C16 15.7761 15.7761 16 15.5 16H2.5C2.22388 16 2 15.7761 2 15.5V7.5H3.70712C3.57225 7.97681 3.5 8.48 3.5 9C3.5 12.0376 5.96244 14.5 9 14.5C12.0376 14.5 14.5 12.0376 14.5 9C14.5 8.48 14.4278 7.97681 14.2929 7.5H16V15.5ZM9 5.5C10.933 5.5 12.5 7.067 12.5 9C12.5 10.933 10.933 12.5 9 12.5C7.067 12.5 5.5 10.933 5.5 9C5.5 7.067 7.067 5.5 9 5.5ZM15.5 0H2.5C1.11931 0 0 1.11931 0 2.5V15.5C0 16.8807 1.11931 18 2.5 18H15.5C16.8807 18 18 16.8807 18 15.5V2.5C18 1.11931 16.8807 0 15.5 0Z" transform="translate(0.780273 0.476807) rotate(0.305471)" fill="black"/>
</g>
</svg>
