<svg width="24" height="24" viewBox="0 0 21 23" fill="none" xmlns="http://www.w3.org/2000/svg">
<rect width="1440" height="1196" fill="none" transform="translate(-1251 -37)"/>
<path d="M5.35303 10.6897C8.30872 10.6897 10.7061 8.29228 10.7061 5.33664C10.7061 2.38099 8.30868 -1.3541e-09 5.35303 -1.3541e-09C2.39739 -1.3541e-09 -1.73325e-08 2.39739 -1.73325e-08 5.33664C-1.73325e-08 8.27588 2.39735 10.6897 5.35303 10.6897ZM5.35303 1.39574C7.52051 1.39574 9.29393 3.16913 9.29393 5.33664C9.29393 7.50414 7.52051 9.2775 5.35303 9.2775C3.18556 9.2775 1.41214 7.50411 1.41214 5.3366C1.41214 3.16909 3.18552 1.39574 5.35303 1.39574Z" transform="translate(5.61426 2)" fill="black"/>
<path d="M0.706068 7.42201H19.2939C19.688 7.42201 20 7.11002 20 6.71594C20 3.02135 16.9951 -1.81991e-07 13.2841 -1.81991e-07H6.71594C3.02135 -1.81991e-07 0 3.00492 0 6.71594C0 7.11002 0.311982 7.42201 0.706068 7.42201ZM6.71594 1.41214H13.2841C15.977 1.41214 18.1937 3.41544 18.5386 6.00983H1.46141C1.80622 3.43187 4.023 1.41214 6.71594 1.41214Z" transform="translate(1 13.6256)" fill="black"/>
</svg>
