<svg width="24" height="24" viewBox="0 0 19 19" fill="none" xmlns="http://www.w3.org/2000/svg">
<rect width="1440" height="1196" fill="none" transform="translate(-1213 -40)"/>
<path d="M14.25 7.12499C14.25 3.19032 11.0598 0 7.12505 0C3.19034 0 0 3.19032 0 7.12499C0 11.0597 3.19034 14.2498 7.12505 14.2498C11.0598 14.2498 14.25 11.0597 14.25 7.12499ZM7.12505 12.4685C4.17831 12.4685 1.78131 10.0717 1.78131 7.12503C1.78131 4.17831 4.17831 1.78134 7.12505 1.78134C10.0717 1.78134 12.4689 4.17831 12.4689 7.12503C12.4689 10.0717 10.0717 12.4685 7.12505 12.4685Z" fill="black"/>
<path d="M6.878 4.35922L2.51909 4.49323e-07C1.86961 1.01008 1.01009 1.86917 -2.96364e-07 2.51868L4.35926 6.8779C5.05518 7.57366 6.18353 7.57366 6.87796 6.8779C7.57392 6.18328 7.57392 5.05494 6.878 4.35922Z" transform="translate(11.6006 11.6003)" fill="black"/>
</svg>
