<svg width="17" height="11" viewBox="0 0 17 11" fill="none" xmlns="http://www.w3.org/2000/svg">
<path d="M0.277093 9.99415C0.115155 9.96084 0 9.8229 0 9.66509C0 4.20017 6.65742 3.03704 8.20182 2.84066V0.333806C8.20182 0.21048 8.27199 0.0965059 8.38535 0.0392265C8.49811 -0.0192219 8.63305 -0.0110391 8.73801 0.0550075L15.8501 4.72153C15.9436 4.7829 16 4.88577 16 5.00033C16 5.11079 15.9436 5.21366 15.8501 5.27679L8.74041 9.94272C8.63485 10.0099 8.49931 10.0169 8.38655 9.95967C8.27379 9.90122 8.20482 9.78608 8.20482 9.66392V6.96536C7.08505 6.97354 6.16021 7.02264 5.38831 7.11265C1.69015 7.53874 0.702328 9.70308 0.660344 9.79543C0.604566 9.91993 0.479214 10 0.344866 10C0.322675 9.99942 0.298084 9.99825 0.277093 9.99415Z" transform="translate(0.460938 0.401321) rotate(0.305471)" fill="white"/>
</svg>
