<svg width="23" height="18" viewBox="0 0 23 18" fill="none" xmlns="http://www.w3.org/2000/svg">
<mask id="mask0" mask-type="alpha" maskUnits="userSpaceOnUse" x="0" y="-1" width="23" height="20">
<path d="M-1.12984e-10 17.9288H22.0625V-1.20092e-09H-1.12984e-10V17.9288Z" transform="translate(0.786133 -0.000564575) rotate(0.305471)" fill="white"/>
</mask>
<g mask="url(#mask0)">
<path fill-rule="evenodd" clip-rule="evenodd" d="M22.0674 2.12295C21.2554 2.48303 20.3829 2.72639 19.467 2.83585C20.4018 2.27551 21.1196 1.38826 21.4577 0.331103C20.583 0.849874 19.614 1.22666 18.5828 1.42975C17.7569 0.549848 16.5803 -1.20092e-09 15.2781 -1.20092e-09C12.7777 -1.20092e-09 10.7506 2.02706 10.7506 4.52728C10.7506 4.88212 10.7907 5.22767 10.8679 5.55901C7.10516 5.37021 3.76918 3.56779 1.53622 0.828726C1.14651 1.49739 0.923247 2.2751 0.923247 3.1048C0.923247 4.67548 1.72259 6.06124 2.93739 6.87309C2.19519 6.84961 1.49715 6.64596 0.886682 6.30686C0.886359 6.32575 0.886359 6.34472 0.886359 6.36377C0.886359 8.55735 2.44695 10.3872 4.51808 10.8031C4.13814 10.9065 3.73819 10.9618 3.32524 10.9618C3.03352 10.9618 2.74988 10.9335 2.47351 10.8806C3.04959 12.6793 4.72157 13.9883 6.7027 14.0248C5.15325 15.2391 3.20109 15.9629 1.08 15.9629C0.714592 15.9629 0.354188 15.9415 0 15.8996C2.00357 17.1842 4.38336 17.9337 6.94009 17.9337C15.2676 17.9337 19.8213 11.035 19.8213 5.05227C19.8213 4.85596 19.8169 4.66071 19.8082 4.46658C20.6927 3.82827 21.4604 3.03086 22.0674 2.12295Z" transform="translate(0.78125 -0.000595093) rotate(0.305471)" fill="black"/>
</g>
</svg>
